<svg version="1" xmlns="http://www.w3.org/2000/svg" width="400" height="400" viewBox="0 0 300.000000 300.000000"><path d="M147.5 1.4c-1.6 1-31.1 18.1-53 30.6-1.6 1-19 11-38.5 22.2L20.5 74.8v150.4L39 235.9c10.2 5.9 39.3 22.8 64.8 37.4l46.2 26.8 12.3-7.2c6.7-3.9 14-8.2 16.2-9.4 2.2-1.2 14.1-8 26.5-15.2 12.4-7.2 34.2-19.8 48.5-28.1l26-15V74.8l-21.4-12.4C246.3 55.6 236.6 50 236.4 50c-.1 0-6.2-3.5-13.5-7.8-7.4-4.3-21.5-12.5-31.4-18.2-9.9-5.6-19.2-11.1-20.7-12.1-1.5-1.1-2.9-1.9-3.2-1.9-.3 0-4.3-2.3-9-5-4.7-2.8-8.6-5-8.8-5-.2 0-1.2.6-2.3 1.4zm9.3 18c3.2 2.1 96.1 55.7 106.2 61.3l3.5 2v134.5l-16.5 9.5c-9.1 5.3-18.1 10.5-20 11.5-1.9 1.1-16.5 9.6-32.5 18.8-43.5 25.2-46.7 27-47.4 27-.4 0-11.7-6.4-25.1-14.1-13.5-7.8-26.1-15-28-16.1-1.9-1.1-12.3-7.1-23-13.3-10.7-6.2-21.3-12.3-23.5-13.5-2.2-1.2-6.9-4-10.5-6.1l-6.5-3.9v-67c0-65.8 0-67.2 2-68.3 1.1-.7 4.4-2.6 7.5-4.3 3-1.7 14.1-8.1 24.5-14.1 10.5-6.1 29.4-17 42-24.3 12.7-7.3 26.6-15.5 31-18.1 8.8-5.2 10.3-5.3 16.3-1.5z"/><path d="M155.1 88.5c-.6.8-3.3 13.5-5.7 27.5-.3 1.4-.7 3.6-1 5-.2 1.4-1.1 6.1-1.9 10.4-.8 4.3-1.7 8.6-1.9 9.5-.3.9-.7 3.2-1 5.1-.3 1.9-.8 4.8-1.2 6.5-.9 5.2-3.3 16.9-3.8 19.1-.2 1.2-.7 3.9-1 6-.4 2.2-.8 4.6-1.1 5.4-.2.8-.6 3.1-.9 5-.7 4.5-1.4 7.9-3.1 16.4-.8 3.8-1.3 7.2-1 7.6.2.3 3.2.6 6.6.4 6.1-.1 7.7-1.1 8-4.4.2-2.9 1.8-12.8 2.5-15.2.3-1 .7-3 1-4.5.4-2.5 1.5-8.2 3-16.3.3-1.4 1.6-8 2.9-14.7 1.4-6.7 2.7-13.5 3-15 .2-1.5.7-3.7.9-4.8.3-1.8 6.1-32.3 7.3-38.5.2-1.4.8-4.3 1.3-6.5s.7-4.2.4-4.5c-1-.9-12.5-.5-13.3.5zM112.5 111.6c-6.6 3.6-16.2 8.7-21.2 11.5-5.1 2.7-11.4 6.1-14 7.6-2.7 1.5-7.7 4.3-11.3 6.3l-6.5 3.5-.3 10c-.2 8.9 0 10.1 1.6 11.2 1 .6 6.3 3.5 11.8 6.3 5.4 2.9 10.4 5.6 10.9 6 1 .7 6.9 3.9 23 12.5 5 2.7 11.1 6.1 13.7 7.6 5.5 3.3 5.4 3.6 5.3-10.6v-10l-21-10.7c-11.6-6-21.8-11.2-22.9-11.6-2-.9-2.2-.8 26.9-14.7 8.7-4.2 16.1-7.8 16.4-8 .6-.7.7-23.5.1-23.5-.3 0-5.9 3-12.5 6.6zM174.9 105.2c0 .2-.2 5.4-.2 11.7l-.2 11.4 22.9 11.1 22.8 11.2-22.8 11.5-22.8 11.4-.1 10c-.1 14.3-.3 13.9 5.6 10.4 2.8-1.6 5.2-2.9 5.4-2.9.2 0 4.7-2.5 10-5.5 5.4-3 9.9-5.5 10-5.5.2 0 5.9-3.1 12.7-6.9 6.8-3.7 14.6-8 17.3-9.5l5-2.6.1-10 .1-10-3.1-1.9c-1.7-1-6-3.4-9.6-5.3-8-4.3-38.2-20.8-46.7-25.5-3.5-1.8-6.3-3.3-6.4-3.1z"/></svg>